<svg width="36" height="28" viewBox="0 0 36 28" fill="none" xmlns="http://www.w3.org/2000/svg">
<path d="M2.55599 12.7304L2.55598 12.7304L2.55503 12.7332C1.7624 15.0767 1.3623 17.3453 1.3623 19.5364V25.9417C1.3623 26.7702 2.03388 27.4417 2.86231 27.4417H11.0415C11.87 27.4417 12.5415 26.7702 12.5415 25.9417L12.5416 19.4638L12.5415 19.4596C12.5184 16.7093 12.9569 14.2093 13.8491 11.9532C14.6601 9.93365 15.6389 7.98648 16.7859 6.11143C17.2072 5.42269 17.0257 4.5099 16.3409 4.05358L11.8431 1.05642L11.8431 1.05642C11.2947 0.690958 10.5562 0.71948 10.0485 1.17184C8.51622 2.53712 7.12206 4.16277 5.86461 6.04524L5.86392 6.04628C4.47389 8.13849 3.37104 10.3668 2.55599 12.7304ZM20.4757 12.7304L20.4747 12.7332C19.6821 15.0767 19.282 17.3453 19.282 19.5364V25.9417C19.282 26.7702 19.9536 27.4417 20.782 27.4417H28.9613C29.7897 27.4417 30.4613 26.7702 30.4613 25.9417L30.4613 19.4638L30.4612 19.4596C30.4382 16.7093 30.8766 14.2093 31.7688 11.9532C32.5798 9.93365 33.5586 7.98648 34.7056 6.11143C35.1269 5.42269 34.9454 4.5099 34.2606 4.05358L29.7628 1.05642C29.2144 0.690957 28.4759 0.719481 27.9682 1.17184L28.3004 1.54459L27.9682 1.17184C26.4359 2.53712 25.0418 4.16277 23.7843 6.04524L23.7836 6.04628C22.3936 8.13849 21.2908 10.3668 20.4757 12.7304Z" fill="#FFE566" stroke="#FFE566"/>
</svg>
