 <svg width="14" height="14" viewBox="0 0 14 14" fill="none" xmlns="http://www.w3.org/2000/svg">
<path d="M6.15861 1.30996C6.55219 0.697195 7.44781 0.697195 7.84139 1.30996L9.51676 3.91833C9.65218 4.12917 9.86181 4.28148 10.1042 4.34512L13.1026 5.13245C13.807 5.31742 14.0838 6.1692 13.6226 6.73287L11.6596 9.13227C11.5009 9.32622 11.4209 9.57266 11.4352 9.82282L11.613 12.9178C11.6548 13.6449 10.9302 14.1713 10.2516 13.9069L7.36304 12.7815C7.12956 12.6905 6.87044 12.6905 6.63696 12.7815L3.74839 13.9069C3.06981 14.1713 2.34523 13.6449 2.38699 12.9178L2.56476 9.82282C2.57912 9.57266 2.49905 9.32622 2.34038 9.13227L0.377388 6.73287C-0.0837613 6.1692 0.193001 5.31742 0.897396 5.13245L3.89582 4.34512C4.13819 4.28148 4.34782 4.12917 4.48324 3.91833L6.15861 1.30996Z" fill="#FFCE22"/>
</svg>

