<svg width="140" height="36" viewBox="0 0 140 36" fill="none" xmlns="http://www.w3.org/2000/svg">
<rect width="36" height="36" rx="18" fill="#262626"/>
<g clip-path="url(#clip0_0_462)">
<path d="M26 18C26 13.5817 22.4183 10 18 10C13.5817 10 10 13.5817 10 18C10 21.993 12.9255 25.3027 16.75 25.9028V20.3125H14.7188V18H16.75V16.2375C16.75 14.2325 17.9444 13.125 19.7717 13.125C20.6467 13.125 21.5625 13.2812 21.5625 13.2812V15.25H20.5538C19.56 15.25 19.25 15.8667 19.25 16.5V18H21.4688L21.1141 20.3125H19.25V25.9028C23.0745 25.3027 26 21.993 26 18Z" fill="white"/>
</g>
<rect x="52" width="36" height="36" rx="18" fill="#262626"/>
<path d="M67.0334 24.4999C73.0697 24.4999 76.3722 19.4977 76.3722 15.1611C76.3722 15.0205 76.3691 14.8767 76.3628 14.7361C77.0052 14.2715 77.5597 13.696 78 13.0367C77.4017 13.3029 76.7664 13.4768 76.1159 13.5524C76.8009 13.1418 77.3137 12.4969 77.5594 11.7371C76.915 12.1189 76.2104 12.3883 75.4756 12.5336C74.9806 12.0076 74.326 11.6593 73.6131 11.5426C72.9003 11.4259 72.1688 11.5472 71.5318 11.8879C70.8949 12.2286 70.3879 12.7697 70.0892 13.4274C69.7906 14.0852 69.717 14.823 69.8797 15.5267C68.575 15.4613 67.2986 15.1223 66.1333 14.5319C64.968 13.9415 63.9398 13.1128 63.1153 12.0996C62.6963 12.822 62.568 13.677 62.7567 14.4906C62.9453 15.3042 63.4367 16.0155 64.1309 16.4799C63.6098 16.4633 63.1 16.323 62.6438 16.0705V16.1111C62.6433 16.8693 62.9054 17.6043 63.3855 18.1911C63.8657 18.7778 64.5342 19.1803 65.2775 19.3299C64.7947 19.462 64.288 19.4812 63.7966 19.3861C64.0063 20.0382 64.4144 20.6085 64.9638 21.0174C65.5133 21.4264 66.1767 21.6536 66.8616 21.6674C65.6989 22.5806 64.2628 23.076 62.7844 23.0736C62.5222 23.0732 62.2603 23.0571 62 23.0255C63.5019 23.989 65.249 24.5008 67.0334 24.4999Z" fill="white"/>
<rect x="104" width="36" height="36" rx="18" fill="#262626"/>
<g clip-path="url(#clip1_0_462)">
<path d="M128.816 10H115.181C114.528 10 114 10.5156 114 11.1531V24.8438C114 25.4813 114.528 26 115.181 26H128.816C129.469 26 130 25.4813 130 24.8469V11.1531C130 10.5156 129.469 10 128.816 10ZM118.747 23.6344H116.372V15.9969H118.747V23.6344ZM117.559 14.9563C116.797 14.9563 116.181 14.3406 116.181 13.5812C116.181 12.8219 116.797 12.2062 117.559 12.2062C118.319 12.2062 118.934 12.8219 118.934 13.5812C118.934 14.3375 118.319 14.9563 117.559 14.9563ZM127.634 23.6344H125.262V19.9219C125.262 19.0375 125.247 17.8969 124.028 17.8969C122.794 17.8969 122.606 18.8625 122.606 19.8594V23.6344H120.238V15.9969H122.512V17.0406H122.544C122.859 16.4406 123.634 15.8063 124.788 15.8063C127.191 15.8063 127.634 17.3875 127.634 19.4438V23.6344Z" fill="white"/>
</g>
<defs>
<clipPath id="clip0_0_462">
<rect width="16" height="16" fill="white" transform="translate(10 10)"/>
</clipPath>
<clipPath id="clip1_0_462">
<rect width="16" height="16" fill="white" transform="translate(114 10)"/>
</clipPath>
</defs>
</svg>
