<svg width="17" height="19" viewBox="0 0 17 19" fill="none" xmlns="http://www.w3.org/2000/svg">
<path fill-rule="evenodd" clip-rule="evenodd" d="M4.75 4.5V5.125H3.09406C2.29444 5.125 1.62385 5.7287 1.54014 6.52393L0.487513 16.5239C0.390401 17.4465 1.11377 18.25 2.04143 18.25H14.9587C15.8864 18.25 16.6097 17.4465 16.5126 16.5239L15.46 6.52393C15.3763 5.7287 14.7057 5.125 13.9061 5.125H12.25V4.5C12.25 2.42893 10.5711 0.75 8.5 0.75C6.42893 0.75 4.75 2.42893 4.75 4.5ZM8.5 2C7.11929 2 6 3.11929 6 4.5V5.125H11V4.5C11 3.11929 9.88071 2 8.5 2ZM6 8.875C6 10.2557 7.11929 11.375 8.5 11.375C9.88071 11.375 11 10.2557 11 8.875V8.25C11 7.90482 11.2798 7.625 11.625 7.625C11.9702 7.625 12.25 7.90482 12.25 8.25V8.875C12.25 10.9461 10.5711 12.625 8.5 12.625C6.42893 12.625 4.75 10.9461 4.75 8.875V8.25C4.75 7.90482 5.02982 7.625 5.375 7.625C5.72018 7.625 6 7.90482 6 8.25V8.875Z" fill="#262626"/>
</svg>
