<svg width="32" height="32" viewBox="0 0 32 32" fill="none" xmlns="http://www.w3.org/2000/svg">
<path d="M0.000335693 31.9997C0.00033551 29.8986 0.414185 27.818 1.21826 25.8768C2.02233 23.9356 3.20089 22.1718 4.68662 20.686C6.17236 19.2003 7.93618 18.0218 9.87739 17.2177C11.8186 16.4136 13.8992 15.9998 16.0003 15.9998V31.9997L0.000335693 31.9997Z" fill="#1A1A1A"/>
<path d="M16.0005 15.9998C16.0005 18.1009 16.4143 20.1815 17.2184 22.1227C18.0225 24.0639 19.201 25.8277 20.6868 27.3135C22.1725 28.7992 23.9363 29.9777 25.8775 30.7818C27.8188 31.5859 29.8993 31.9997 32.0005 31.9997L32.0005 15.9998L16.0005 15.9998Z" fill="#FFD400"/>
<path d="M16.0003 15.9997C16.0003 13.8986 15.5865 11.818 14.7824 9.87681C13.9783 7.9356 12.7998 6.17178 11.314 4.68604C9.8283 3.20031 8.06447 2.02175 6.12326 1.21768C4.18206 0.413607 2.10148 -0.000244141 0.000335693 -0.000244141L0.000336803 15.9997H16.0003Z" fill="#FFD400"/>
<path d="M32.0003 -0.000244141C32.0003 2.1009 31.5864 4.18148 30.7824 6.12268C29.9783 8.06389 28.7997 9.82771 27.314 11.3134C25.8283 12.7992 24.0644 13.9777 22.1232 14.7818C20.182 15.5859 18.1015 15.9997 16.0003 15.9997L16.0003 -0.000244141H32.0003Z" fill="#1A1A1A"/>
</svg>
